<svg width="128" height="128" viewBox="0 0 128 128" fill="none" xmlns="http://www.w3.org/2000/svg">
<g clip-path="url(#clip0)">
<path d="M143.194 50.7212C127.38 41.186 103.324 31.1136 82.0041 28.4445C81.6684 28.3773 81.3327 28.3269 81.0137 28.2766C79.1503 28.0583 77.908 28.0751 77.0519 28.1255C77.0183 28.1255 76.9847 28.1423 76.9512 28.1591C76.1789 28.243 76.1286 29.267 76.4811 30.61C76.884 32.3895 77.9584 34.7061 79.016 36.0323C79.2846 36.3849 79.9897 36.8717 80.2583 37.0396C88.7862 42.3947 94.0406 51.762 94.0406 61.8512C94.0406 78.051 80.8626 91.1451 64.6628 91.1451C64.4278 91.1451 63.5381 91.1451 63.3199 91.1451C47.1369 91.1451 33.9589 78.051 33.9589 61.8512C33.9589 51.762 39.2133 42.3611 47.7412 37.006C48.0098 36.8381 48.7149 36.3681 48.9835 36.0155C50.8469 33.6317 52.7774 28.2262 50.9476 28.1087C50.0915 28.0583 48.7988 28.0751 46.9187 28.2934C46.7508 28.3102 46.5829 28.3437 46.415 28.3605C46.2807 28.3773 46.1632 28.3941 46.0289 28.4109C24.6587 31.0465 0.568887 41.2364 -15.2951 50.8052C-15.2951 50.8052 -15.9498 51.2584 -15.9498 52.1817C-15.9498 53.2897 -15.9498 59.3667 -15.9498 60.1389C-15.9498 60.7936 -15.1608 61.0118 -14.12 60.3068C-2.58713 52.8196 14.8381 44.5603 32.1962 39.9941C27.7643 46.3229 25.263 53.9947 25.263 61.9351C25.263 82.9193 42.3357 99.9752 63.3031 99.9752H64.6628C85.647 99.9752 102.703 82.9025 102.703 61.9184C102.703 53.9947 100.218 46.3565 95.8033 40.0277C113.094 44.5939 130.536 52.7525 142.019 60.2228C143.076 60.9279 144 60.7768 144 60.1221C144 59.3499 144 53.2729 144 52.1649C144.016 51.2416 143.194 50.7212 143.194 50.7212Z" fill="#7CD8FF"/>
<path d="M64.2601 41.8911C68.0891 41.8911 71.1932 38.787 71.1932 34.9579C71.1932 31.1289 68.0891 28.0248 64.2601 28.0248C60.431 28.0248 57.3269 31.1289 57.3269 34.9579C57.3269 38.787 60.431 41.8911 64.2601 41.8911Z" fill="#7CD8FF"/>
</g>
<defs>
<clipPath id="clip0">
<rect width="128" height="128" fill="white"/>
</clipPath>
</defs>
</svg>
