<svg width="361" height="160" viewBox="0 0 361 160" fill="none" xmlns="http://www.w3.org/2000/svg">
<g clip-path="url(#clip0)">
<path d="M268.411 25.3832C250.804 14.7663 224.019 3.55139 200.28 0.579428C199.906 0.504661 199.533 0.448587 199.177 0.392512C197.103 0.149521 195.72 0.168213 194.766 0.224287C194.729 0.224287 194.692 0.242979 194.654 0.261671C193.794 0.355129 193.738 1.49532 194.131 2.99064C194.579 4.97195 195.776 7.55139 196.953 9.02802C197.252 9.42055 198.037 9.9626 198.336 10.1495C207.832 16.1121 213.682 26.542 213.682 37.7757C213.682 55.8131 199.009 70.3925 180.972 70.3925C180.71 70.3925 179.72 70.3925 179.477 70.3925C161.458 70.3925 146.785 55.8131 146.785 37.7757C146.785 26.542 152.635 16.0748 162.131 10.1121C162.43 9.92522 163.215 9.40186 163.514 9.00933C165.589 6.35513 167.738 0.336437 165.701 0.205596C164.748 0.149521 163.308 0.168213 161.215 0.411203C161.028 0.429895 160.841 0.467278 160.654 0.48597C160.505 0.504661 160.374 0.523353 160.224 0.542044C136.43 3.47662 109.607 14.8224 91.9438 25.4766C91.9438 25.4766 91.2148 25.9813 91.2148 27.0093C91.2148 28.243 91.2148 35.0093 91.2148 35.8691C91.2148 36.5981 92.0933 36.8411 93.2522 36.0561C106.093 27.7196 125.495 18.5234 144.822 13.4392C139.888 20.486 137.103 29.028 137.103 37.8691C137.103 61.2336 156.112 80.2243 179.458 80.2243H180.972C204.336 80.2243 223.327 61.2149 223.327 37.8505C223.327 29.028 220.561 20.5234 215.645 13.4766C234.897 18.5607 254.318 27.6448 267.103 35.9626C268.28 36.7477 269.308 36.5794 269.308 35.8505C269.308 34.9906 269.308 28.2243 269.308 26.9906C269.327 25.9626 268.411 25.3832 268.411 25.3832Z" fill="#44B8EA"/>
<path d="M180.523 15.5514C184.787 15.5514 188.243 12.0952 188.243 7.83181C188.243 3.56838 184.787 0.112183 180.523 0.112183C176.26 0.112183 172.804 3.56838 172.804 7.83181C172.804 12.0952 176.26 15.5514 180.523 15.5514Z" fill="#44B8EA"/>
<path d="M158.131 1.34581C158.748 0.990668 159.701 0.747677 160.598 0.598145C160.449 0.616836 160.318 0.635528 160.168 0.654219C136.374 3.5888 109.551 14.9346 91.8879 25.5888C91.8879 25.5888 91.1589 26.0935 91.1589 27.1215C91.1589 28.3552 91.1589 35.1215 91.1589 35.9813C91.1589 36.7103 92.0374 36.9533 93.1963 36.1682C106.037 27.8318 125.439 18.6355 144.766 13.5514C148.224 8.61684 152.748 4.41123 158.131 1.34581Z" fill="url(#paint0_linear)"/>
<path d="M202.206 1.34581C201.589 0.990668 200.635 0.747677 199.738 0.598145C199.888 0.616836 200.019 0.635528 200.168 0.654219C223.963 3.5888 250.822 14.9346 268.486 25.5701C268.486 25.5701 269.271 26.0748 269.271 27.1028C269.271 28.3365 269.271 35.1028 269.271 35.9626C269.271 36.6916 268.355 36.9346 267.178 36.1495C254.336 27.8131 234.916 18.6168 215.589 13.5327C212.131 8.61684 207.589 4.41123 202.206 1.34581Z" fill="url(#paint1_linear)"/>
<path d="M52.5046 160V156.636H53.4953C54.1495 155.72 54.6168 154.654 54.8972 153.421C55.1775 152.206 55.3271 150.505 55.3271 148.355V147.084H61.8317V156.617H63.4205V159.981H62.3738V157.626H53.514V159.981H52.5046V160ZM60.7289 156.636V148.112H56.4299V148.822C56.4299 152.411 55.8691 155.009 54.7476 156.636H60.7289Z" fill="#44B8EA"/>
<path d="M73.3457 157.645V147.103H74.4485L78.2616 152.206L82.0747 147.103H83.1588V157.645H82.056V148.785L78.598 153.402H77.9251L74.4485 148.785V157.645H73.3457Z" fill="#44B8EA"/>
<path d="M94.0374 157.645V147.103H95.1402V155.776L101.701 147.103H102.673V157.645H101.57V148.935L94.9719 157.645H94.0374Z" fill="#44B8EA"/>
<path d="M116.243 157.645V148.112H112.617V147.103H121.028V148.112H117.346V157.645H116.243Z" fill="#44B8EA"/>
<path d="M130.972 157.645V147.103H135.402C137.514 147.103 138.785 148.28 138.785 150.019C138.785 151.813 137.514 152.991 135.402 152.991H132.093V157.645H130.972ZM132.075 151.981H135.327C136.822 151.981 137.682 151.271 137.682 150.056C137.682 148.804 136.822 148.112 135.327 148.112H132.093V151.981H132.075Z" fill="#44B8EA"/>
<path d="M146.766 157.645L151.458 147.047H152.505L157.215 157.645H156.037L154.729 154.729H149.196L147.925 157.645H146.766ZM149.589 153.757H154.374L151.981 148.449L149.589 153.757Z" fill="#44B8EA"/>
<path d="M178.972 157.645V147.103H186.037V148.112H180.093V157.645H178.972Z" fill="#44B8EA"/>
<path d="M199.963 146.916C201.477 146.916 202.729 147.439 203.738 148.486C204.748 149.533 205.252 150.822 205.252 152.374C205.252 153.925 204.748 155.234 203.738 156.28C202.729 157.327 201.477 157.832 199.963 157.832C198.449 157.832 197.178 157.327 196.168 156.28C195.159 155.234 194.654 153.925 194.654 152.374C194.654 150.822 195.159 149.533 196.168 148.486C197.178 147.439 198.449 146.916 199.963 146.916ZM199.963 156.785C201.14 156.785 202.131 156.355 202.935 155.514C203.738 154.673 204.131 153.607 204.131 152.374C204.131 151.122 203.72 150.075 202.935 149.234C202.131 148.393 201.14 147.963 199.963 147.963C198.785 147.963 197.794 148.393 196.991 149.234C196.187 150.075 195.794 151.14 195.794 152.374C195.794 153.626 196.206 154.673 196.991 155.514C197.776 156.355 198.785 156.785 199.963 156.785Z" fill="#44B8EA"/>
<path d="M215.738 157.645V147.103H220.168C222.28 147.103 223.551 148.28 223.551 150.019C223.551 151.813 222.28 152.991 220.168 152.991H216.86V157.645H215.738ZM216.86 151.981H220.093C221.589 151.981 222.449 151.271 222.449 150.056C222.449 148.804 221.589 148.112 220.093 148.112H216.86V151.981Z" fill="#44B8EA"/>
<path d="M232.692 157.645L236.094 152.804C234.505 152.542 233.608 151.458 233.608 149.981C233.608 148.243 234.86 147.121 236.916 147.121H241.645V157.664H240.523V152.916H237.308L233.981 157.664H232.692V157.645ZM240.542 151.888V148.112H237.009C235.57 148.112 234.729 148.804 234.729 150.019C234.729 151.234 235.57 151.907 237.009 151.907H240.542V151.888Z" fill="#44B8EA"/>
<path d="M258.86 157.645V152.897C257.869 153.271 256.841 153.458 255.795 153.458C253.402 153.458 252.112 152.505 252.112 150.224V147.103H253.234V149.925C253.234 151.776 254.056 152.411 256.056 152.411C257.009 152.411 257.963 152.206 258.879 151.794V147.103H260V157.645H258.86Z" fill="#44B8EA"/>
<path d="M270.878 157.645V147.103H278.112V148.112H272V151.495H277.009V152.505H272V156.654H278.336V157.664H270.878V157.645Z" fill="#44B8EA"/>
<path d="M288.43 157.645V147.103H292.991C294.86 147.103 296.019 148.075 296.019 149.664C296.019 150.766 295.495 151.57 294.636 151.888C296.019 152.112 296.916 153.159 296.916 154.71C296.916 156.467 295.608 157.645 293.458 157.645H288.43ZM289.551 151.551H292.822C294.168 151.551 294.935 150.953 294.935 149.851C294.935 148.729 294.168 148.112 292.822 148.112H289.551V151.551ZM289.551 156.636H293.271C294.841 156.636 295.738 155.888 295.738 154.58C295.738 153.309 294.841 152.542 293.271 152.542H289.551V156.636Z" fill="#44B8EA"/>
<path d="M306.243 157.645L310.935 147.047H311.981L316.692 157.645H315.514L314.206 154.729H308.673L307.402 157.645H306.243ZM309.065 153.757H313.85L311.458 148.449L309.065 153.757Z" fill="#44B8EA"/>
<path d="M2.42991 106C4.05607 104.336 6.09346 103.514 8.54206 103.514C10.9907 103.514 13.0093 104.336 14.6355 106C16.2617 107.645 17.0841 109.664 17.0841 112.075C17.0841 114.449 16.2617 116.467 14.6355 118.15C13.0093 119.813 10.9907 120.636 8.54206 120.636C6.09346 120.636 4.05607 119.813 2.42991 118.15C0.803738 116.486 0 114.449 0 112.075C0 109.664 0.803738 107.645 2.42991 106ZM8.54206 117.458C10 117.458 11.1963 116.935 12.1682 115.925C13.1402 114.916 13.6262 113.626 13.6262 112.075C13.6262 110.523 13.1402 109.234 12.1682 108.224C11.1963 107.215 10 106.692 8.54206 106.692C7.08411 106.692 5.85047 107.215 4.8972 108.224C3.94393 109.234 3.45794 110.523 3.45794 112.075C3.45794 113.626 3.92523 114.916 4.8972 115.925C5.86916 116.935 7.08411 117.458 8.54206 117.458Z" fill="#44B8EA"/>
<path d="M27.6449 120.934V119.121C22.2804 118.934 19.6823 115.477 19.6823 111.925C19.6823 110.019 20.3738 108.355 21.757 106.953C23.1402 105.57 25.1028 104.804 27.6449 104.71V103.196H31.0654V104.71C33.6075 104.804 35.5514 105.551 36.9533 106.953C38.3365 108.336 39.028 110.019 39.028 111.925C39.028 115.477 36.4486 118.934 31.0654 119.121V120.934H27.6449ZM27.6449 107.776C24.8037 107.794 23.1776 109.439 23.1776 111.925C23.1776 114.374 24.8037 116 27.6449 116.075V107.776ZM31.0654 116.075C33.9066 116 35.5327 114.374 35.5327 111.925C35.5327 109.458 33.9066 107.813 31.0654 107.776V116.075Z" fill="#44B8EA"/>
<path d="M39.8691 103.832H53.6822V106.86H48.4673V120.299H45.0841V106.86H39.8878V103.832H39.8691Z" fill="#44B8EA"/>
<path d="M52.5233 120.299L59.5887 103.738H62.8411L69.9065 120.299H66.299L64.6728 116.486H57.7009L56.0747 120.299H52.5233ZM58.7663 113.682H63.5887L61.1962 107.963L58.7663 113.682Z" fill="#44B8EA"/>
<path d="M70.542 117.103C70.8784 117.215 71.271 117.29 71.7383 117.29C72.6354 117.29 73.2149 116.673 73.5326 115.477C73.8504 114.28 74.0186 112 74.0747 108.654L74.1495 103.832H85.7756V120.299H82.4112V106.86H77.4205L77.327 110.206C77.2149 114.037 76.785 116.692 76.0186 118.187C75.2336 119.645 73.9065 120.374 71.9439 120.374C71.3644 120.374 70.8784 120.299 70.5607 120.168V117.103H70.542Z" fill="#44B8EA"/>
<path d="M89.5327 120.299V103.832H92.9159V109.271H96.5421C98.486 109.271 100.056 109.794 101.196 110.822C102.355 111.832 102.916 113.178 102.916 114.804C102.916 116.43 102.355 117.776 101.196 118.785C100.037 119.794 98.486 120.318 96.5421 120.318H89.5327V120.299ZM92.9346 117.308H96.3738C98.3551 117.308 99.5327 116.374 99.5327 114.748C99.5327 113.084 98.3551 112.131 96.3738 112.131H92.9346V117.308Z" fill="#44B8EA"/>
<path d="M105.607 120.299V103.832H108.972L113.757 110.654L118.542 103.832H121.869V120.299H118.523V109.028L114.729 114.318H112.841L108.991 109.028V120.299H105.607Z" fill="#44B8EA"/>
<path d="M127.495 106C129.122 104.336 131.159 103.514 133.607 103.514C136.056 103.514 138.075 104.336 139.701 106C141.327 107.645 142.15 109.664 142.15 112.075C142.15 114.449 141.327 116.467 139.701 118.15C138.075 119.813 136.056 120.636 133.607 120.636C131.159 120.636 129.122 119.813 127.495 118.15C125.869 116.486 125.065 114.449 125.065 112.075C125.084 109.664 125.869 107.645 127.495 106ZM133.626 117.458C135.084 117.458 136.28 116.935 137.252 115.925C138.224 114.916 138.71 113.626 138.71 112.075C138.71 110.523 138.224 109.234 137.252 108.224C136.28 107.215 135.084 106.692 133.626 106.692C132.168 106.692 130.935 107.215 129.981 108.224C129.028 109.234 128.542 110.523 128.542 112.075C128.542 113.626 129.009 114.916 129.981 115.925C130.953 116.935 132.15 117.458 133.626 117.458Z" fill="#44B8EA"/>
<path d="M143.215 117.103C143.551 117.215 143.944 117.29 144.411 117.29C145.308 117.29 145.888 116.673 146.206 115.477C146.505 114.28 146.691 112 146.748 108.654L146.822 103.832H158.449V120.299H155.084V106.86H150.093L150 110.206C149.888 114.037 149.458 116.692 148.691 118.187C147.906 119.645 146.579 120.374 144.617 120.374C144.037 120.374 143.551 120.299 143.234 120.168V117.103H143.215Z" fill="#44B8EA"/>
<path d="M164.075 106C165.701 104.336 167.738 103.514 170.187 103.514C172.635 103.514 174.654 104.336 176.28 106C177.906 107.645 178.729 109.664 178.729 112.075C178.729 114.449 177.906 116.467 176.28 118.15C174.654 119.813 172.635 120.636 170.187 120.636C167.738 120.636 165.701 119.813 164.075 118.15C162.449 116.486 161.645 114.449 161.645 112.075C161.645 109.664 162.449 107.645 164.075 106ZM170.187 117.458C171.645 117.458 172.841 116.935 173.813 115.925C174.785 114.916 175.271 113.626 175.271 112.075C175.271 110.523 174.785 109.234 173.813 108.224C172.841 107.215 171.645 106.692 170.187 106.692C168.729 106.692 167.495 107.215 166.542 108.224C165.589 109.234 165.103 110.523 165.103 112.075C165.103 113.626 165.57 114.916 166.542 115.925C167.514 116.935 168.729 117.458 170.187 117.458Z" fill="#44B8EA"/>
<path d="M181.906 120.299V103.832H193.794V106.86H185.308V120.299H181.906Z" fill="#44B8EA"/>
<path d="M196.654 120.299V103.832H200.019V120.299H196.654Z" fill="#44B8EA"/>
<path d="M213.159 120.299V113.869C211.981 114.262 210.729 114.449 209.439 114.449C205.551 114.449 203.346 112.636 203.346 109.084V103.832H206.729V108.542C206.729 110.598 207.794 111.346 209.888 111.346C211.103 111.346 212.187 111.103 213.159 110.636V103.832H216.523V120.299H213.159Z" fill="#44B8EA"/>
<path d="M220.28 120.299V103.832H223.663V110H231.103V103.832H234.467V120.299H231.103V113.084H223.663V120.299H220.28Z" fill="#44B8EA"/>
<path d="M238.243 120.299V103.832H241.626V114.561L249.607 103.832H252.523V120.299H249.159V109.495L241.084 120.299H238.243Z" fill="#44B8EA"/>
<path d="M256.299 120.299V103.832H259.682V114.561L267.664 103.832H270.579V120.299H267.215V109.495L259.14 120.299H256.299ZM261.607 98.9159C261.607 99.9439 262.299 100.636 263.402 100.636C264.505 100.636 265.215 99.9439 265.234 98.9159H267.72C267.701 101.383 265.888 102.935 263.421 102.935C260.953 102.935 259.14 101.383 259.122 98.9159H261.607Z" fill="#44B8EA"/>
<path d="M293.234 123.664V120.299H280.486V103.832H283.869V117.271H290.766V103.832H294.15V117.271H296.43V123.664H293.234Z" fill="#44B8EA"/>
<path d="M299.028 120.299V103.832H311.122V106.86H302.411V110.037H309.421V113.028H302.411V117.271H311.383V120.299H299.028Z" fill="#44B8EA"/>
<path d="M314.206 120.299V103.832H317.589V110H325.028V103.832H328.392V120.299H325.028V113.084H317.589V120.299H314.206Z" fill="#44B8EA"/>
<path d="M331.065 103.832H344.879V106.86H339.664V120.299H336.262V106.86H331.065V103.832Z" fill="#44B8EA"/>
<path d="M347.514 120.299V103.832H354.71C356.467 103.832 357.888 104.299 358.897 105.215C359.925 106.131 360.449 107.308 360.449 108.785C360.449 110.262 359.925 111.477 358.897 112.393C357.888 113.308 356.467 113.776 354.71 113.776H350.897V120.299H347.514ZM350.897 110.897H354.467C356.094 110.897 357.047 110.168 357.047 108.841C357.047 107.514 356.075 106.785 354.467 106.785H350.897V110.897Z" fill="#44B8EA"/>
<path d="M316.337 132.766H52.5608V133.533H316.337V132.766Z" fill="#44B8EA"/>
<path d="M316.449 132.43H52.5608V133.514H316.449V132.43Z" fill="#44B8EA"/>
</g>
<defs>
<linearGradient id="paint0_linear" x1="110.233" y1="4.86882" x2="142.046" y2="32.4997" gradientUnits="userSpaceOnUse">
<stop offset="0.2928" stop-color="#00A1CA" stop-opacity="0"/>
<stop offset="0.367" stop-color="#0093BD" stop-opacity="0.105"/>
<stop offset="0.4982" stop-color="#03769E" stop-opacity="0.2904"/>
<stop offset="0.6708" stop-color="#014B72" stop-opacity="0.5346"/>
<stop offset="0.8761" stop-color="#00133C" stop-opacity="0.8249"/>
<stop offset="1" stop-color="#000005"/>
</linearGradient>
<linearGradient id="paint1_linear" x1="250.156" y1="4.8593" x2="218.305" y2="32.5236" gradientUnits="userSpaceOnUse">
<stop offset="0.2928" stop-color="#00A1CA" stop-opacity="0"/>
<stop offset="0.367" stop-color="#0093BD" stop-opacity="0.105"/>
<stop offset="0.4982" stop-color="#03769E" stop-opacity="0.2904"/>
<stop offset="0.6708" stop-color="#014B72" stop-opacity="0.5346"/>
<stop offset="0.8761" stop-color="#00133C" stop-opacity="0.8249"/>
<stop offset="1" stop-color="#000005"/>
</linearGradient>
<clipPath id="clip0">
<rect width="360.561" height="160" fill="white"/>
</clipPath>
</defs>
</svg>
